<svg width="176" height="101" viewBox="0 0 176 101" fill="none" xmlns="http://www.w3.org/2000/svg">
    <g clip-path="url(#mmcs5noxwa)">
        <path d="M88 100.999c48.602 0 88.001-2.997 88.001-6.695 0-3.697-39.399-6.694-88-6.694C39.399 87.61 0 90.607 0 94.304 0 98.002 39.4 101 88 101z" fill="#EAF3F9"/>
        <path d="M77.876 50.412H51.789v36.762h26.087V50.412z" fill="#FFBF24"/>
        <path d="M113.291 50.412H88.758v36.762h24.533V50.412z" fill="#FFC024"/>
        <path d="M113.37 50.412h-.079v36.762h6.979V50.412h-6.9zM129.191 50.412h-4.353v36.762h4.353V50.412z" fill="#FFB000"/>
        <path d="M88.758 45.235H114.859V23.847H88.758v21.388zM77.876 23.847H50.01v21.388h27.865V23.847z" fill="#FFC024"/>
        <path d="M124.838 23.847v21.388h5.337V23.847h-5.337zM120.27 23.847h-5.411v21.389h5.411v-21.39z" fill="#FFB000"/>
        <path d="M77.876 45.235H51.789v5.177h26.087v-5.177zM113.291 45.235H88.758v5.177h24.533v-5.177z" fill="#FFA11D"/>
        <path d="M113.37 45.235h-.079v5.177h6.979v-5.177H113.37zM129.191 45.235h-4.353v5.177h4.353v-5.177z" fill="#F98800"/>
        <path d="M88.758 45.235V23.847H77.876v63.327h10.882V45.235z" fill="#F54E42"/>
        <path d="M124.838 45.235V23.847h-4.568v63.327h4.568V45.235z" fill="#E3392D"/>
        <path d="M64.538 23.846h50.826c4.23 0 7.83-3.091 8.472-7.281.606-3.958.89-8.76-.345-12.335-2.511-7.27-16.739-4.335-23.436 2.517-6.696 6.851-7.4 15.869-7.4 15.869l.003.003c-.62-.653-1.597-1.307-2.994-1.228-1.134.064-1.915.452-2.449.901-.198-1.665-1.418-9.46-7.366-15.545C73.15-.105 58.922-3.042 56.411 4.23c-1.235 3.575-.952 8.377-.345 12.335a8.575 8.575 0 0 0 8.472 7.28zm36.709-13.017c4.793-4.722 14.976-6.746 16.774-1.735.642 1.79.711 4.026.534 6.162-.345 4.168-3.851 7.359-8.024 7.359H95.807s.648-7.063 5.441-11.786h-.001zM61.881 9.094c1.798-5.011 11.981-2.987 16.774 1.735 4.792 4.722 5.594 11.786 5.594 11.786H69.372c-4.173 0-7.68-3.192-8.024-7.36-.177-2.136-.108-4.372.534-6.161z" fill="#F54E42"/>
        <path d="M39.513 66.937h-23.18v27.665h23.18V66.937zM70.983 66.937h-21.8v27.665h21.8V66.937z" fill="#E5C5FC"/>
        <path d="M85.11 66.937h-3.867v27.665h3.868V66.937zM71.052 66.937h-.07v27.666h6.2V66.937h-6.13z" fill="#BE7CF7"/>
        <path d="M49.183 63.041h23.193V46.945H49.183V63.04zM39.513 46.945H14.755V63.04h24.759V46.945z" fill="#E5C5FC"/>
        <path d="M81.243 46.945V63.04h4.741V46.945h-4.741zM77.183 46.945h-4.807V63.04h4.807V46.945z" fill="#BE7CF7"/>
        <path d="M39.513 63.041h-23.18v3.896h23.18v-3.896zM70.983 63.041h-21.8v3.896h21.8v-3.896z" fill="#D3ABF4"/>
        <path d="M71.052 63.041h-.07v3.896h6.2v-3.896h-6.13zM85.11 63.041h-3.867v3.896h3.868v-3.896z" fill="#AB72E8"/>
        <path d="M49.183 63.041V46.945h-9.67v47.658h9.67V63.04z" fill="#BA83DB"/>
        <path d="M81.243 63.041V46.945h-4.06v47.658h4.06V63.04z" fill="#A96ED3"/>
        <path d="M34.39 46.945c-5.454-2.857.048-8.174 3.291-6.697 3.238 1.476 8.355 6.682 8.37 6.697V43.99c-5.49-12.422-12.793-11.032-16.723-7.563-3.93 3.468-1.574 10.513-1.572 10.517h6.633zM50.05 46.945s5.128-5.22 8.37-6.697c3.242-1.477 8.745 3.84 3.292 6.697h6.632s2.358-7.05-1.572-10.517c-3.93-3.468-11.233-4.86-16.723 7.563v2.954z" fill="#BA83DB"/>
        <path d="M46.051 46.945h3.998V43.99c-1.941-1.735-3.987-.009-3.998 0v2.954z" fill="#A96ED3"/>
        <path d="M134.606 71.377c.045 1.376.12 2.26.12 2.26l-2.095-2.26h-.933l-1.828 2.26.018-2.26h-4.267V92.42h13.278V71.377h-4.293zM153.883 71.377l.018 2.26-1.828-2.26h-.933l-2.095 2.26s.074-.885.119-2.26h-4.727V92.42h12.488V71.377h-3.043.001z" fill="#7BBA00"/>
        <path d="M165.018 71.377h-2.216V92.42h2.216V71.377zM156.965 71.377h-.04V92.42h3.552V71.377h-3.512z" fill="#72A000"/>
        <path d="M145.683 56.173h-1.246v12.241h4.753c-.072-4.523-.714-10.592-3.507-12.241zM138.899 56.173h-.812c-2.793 1.65-3.435 7.719-3.507 12.241h4.318V56.173h.001z" fill="#7BBA00"/>
        <path d="M129.934 65.356c.065-8.28 3.458-9.18 3.458-9.18l4.453-.003h-13.129v12.241h5.195l.024-3.058h-.001zM156.965 68.414h.758V56.173h-6.378.007-5.426l4.453.003s3.393.9 3.457 9.18l.025 3.058h3.105-.001z" fill="#7BBA00"/>
        <path d="M160.477 56.173h-2.754v12.241h2.754V56.173zM162.802 56.173v12.241h2.717V56.173h-2.717z" fill="#72A000"/>
        <path d="M151.14 71.377h.933l-.435-.537-.498.537zM149.19 68.414h-4.753v2.963h4.727c.028-.835.044-1.852.026-2.963zM153.86 68.414l.023 2.963h3.042v-2.963h-3.065zM132.132 70.84l-.435.537h.934l-.499-.537zM138.899 68.414h-4.319a62.758 62.758 0 0 0 .026 2.963h4.293v-2.963zM129.91 68.414h-4.29v2.963h4.267l.023-2.963z" fill="#74A300"/>
        <path d="M165.018 68.414h-2.216v2.963h2.216v-2.963zM156.965 68.414h-.04v2.963h3.552v-2.963h-3.512z" fill="#688900"/>
        <path d="M144.437 68.414V56.173h1.246c2.793 1.65 3.435 7.719 3.507 12.241.018 1.11.002 2.128-.026 2.963-.044 1.376-.119 2.26-.119 2.26l2.095-2.26.498-.538.435.538 1.828 2.26-.018-2.26-.023-2.963c-.008-.867-.015-1.878-.024-3.058-.065-8.28-3.458-9.18-3.458-9.18l-4.453-.003h-2.508l.001-.029c-.252.014-.527.023-.83.029h-.989c-6.63-.098-6.917-5.784-3.444-5.546 3.472.237 6.905 3.917 6.905 3.917a4.579 4.579 0 0 1 1.333-.192s-5.738-9.431-10.199-9.698c-4.46-.267-8.857 7.944-4.46 11.519h6.108l-4.453.003s-3.393.9-3.457 9.18l-.024 3.058c-.01 1.274-.017 2.235-.024 2.963l-.017 2.26 1.827-2.26.435-.538.499.538 2.095 2.26s-.075-.885-.12-2.26a60.165 60.165 0 0 1-.026-2.963c.072-4.523.715-10.592 3.507-12.241h.812v36.246h5.539V68.414h.002z" fill="#FFCE00"/>
        <path d="M162.802 68.414V56.173h-2.325v36.246h2.325V68.414z" fill="#EABD00"/>
        <path d="M147.892 54.544s3.433-3.68 6.905-3.917c3.471-.238 3.184 5.447-3.445 5.546h-.007 9.872c4.397-3.575 0-11.786-4.46-11.52-4.461.267-10.199 9.699-10.199 9.699v.002c.46.015.892.095 1.274.224.036-.022.06-.034.06-.034zM150.373 56.173h-.01c-.37-.007-.699-.02-.994-.039l.002.039h1.003-.001z" fill="#FFCE00"/>
        <path d="M145.062 54.544c-.962.296-1.625.899-1.643 1.6l-.001.029h5.952l-.002-.039c-.022-.67-.637-1.252-1.536-1.556a4.463 4.463 0 0 0-1.439-.227c-.478 0-.931.07-1.332.193h.001z" fill="#EABD00"/>
        <path d="M135.569 84.022c-.015 2.82-.635 5.343-.635 5.343l-1.965-3.151-2.555 3.151s.147-2.66-.029-5.343h-10.889v10.89h22.832v-10.89h-6.759zM112.338 84.022h-24.66v10.89h24.66v-10.89z" fill="#D4EAFC"/>
        <path d="M156.456 84.022h-3.868v10.89h3.868v-10.89zM142.397 84.022h-.07v10.89h6.201v-10.89h-6.131z" fill="#A8D5F4"/>
        <path d="M137.292 76.153h-6.368a8.076 8.076 0 0 1 2.225 1.082c1.561 1.105 2.185 3.151 2.363 5.254h8.209v-6.336h-6.429zM112.338 76.152h-7.147l.001.001H86.1v6.336h26.238v-6.337zM129.191 78.99c-1.312-1.588-5.058-2.497-6.641-2.819l-.09-.018h-2.965v6.336h10.749c-.184-1.498-.504-2.833-1.053-3.498z" fill="#D4EAFC"/>
        <path d="M152.588 76.152v6.337h4.741v-6.337h-4.741zM148.528 76.152h-4.807v6.336h4.807v-6.336z" fill="#A8D5F4"/>
        <path d="M112.338 82.489h-24.66v1.534h24.66v-1.534zM135.512 82.489c.043.512.06 1.028.057 1.534h6.758v-1.534h-6.815zM119.496 82.489v1.534h10.889a27.798 27.798 0 0 0-.141-1.534h-10.749.001z" fill="#A9D7F7"/>
        <path d="M156.456 82.489h-3.868v1.534h3.868v-1.534zM142.397 82.489h-.07v1.533H148.528v-1.533h-6.131z" fill="#73C3EF"/>
        <path d="M119.496 82.489v-6.336h-7.158v18.759h7.158V82.49z" fill="#4097D3"/>
        <path d="M152.588 82.489v-6.337h-4.06V94.912h4.06V82.49z" fill="#0C7DBC"/>
        <path d="M105.192 76.153c-1.769-3.2.296-5.961 4.128-5.378 3.066.465 8.233 3.627 10.179 4.874.01-.415.197-.787.489-1.041-1.713-1.88-5.206-5.03-10.667-6.878-8.156-2.758-10.514 5.42-8.746 8.423h4.619-.002zM122.929 75.683v.002c1.9-1.22 7.139-4.441 10.236-4.911 3.832-.582 5.895 2.178 4.128 5.378h4.618c1.769-3.004-.591-11.18-8.746-8.423-5.491 1.856-8.991 5.03-10.694 6.907.281.26.458.633.458 1.047z" fill="#4097D3"/>
        <path d="M135.512 82.489c-.178-2.103-.802-4.15-2.363-5.254a8.076 8.076 0 0 0-2.225-1.082c-2.974-.95-6.443-.517-7.995-.24v.24h-.468l.09.018c1.582.322 5.329 1.231 6.641 2.82.549.664.869 1.999 1.052 3.497.061.5.108 1.017.142 1.534.176 2.682.029 5.343.029 5.343l2.555-3.151 1.965 3.151s.62-2.523.635-5.343a17.176 17.176 0 0 0-.057-1.534h-.001z" fill="#4097D3"/>
        <path d="m119.497 75.648-.002.035v.47h3.433v-.47c0-.415-.177-.786-.458-1.047a1.417 1.417 0 0 0-.966-.381h-.584a1.427 1.427 0 0 0-1.423 1.393z" fill="#0C7DBC"/>
    </g>
    <defs>
        <clipPath id="mmcs5noxwa">
            <path fill="#fff" d="M0 0h176v101H0z"/>
        </clipPath>
    </defs>
</svg>
